<?xml version="1.0" encoding="UTF-8" standalone="no"?>
<svg
   viewBox="0 0 181.895 389.35801"
   width="181.895"
   height="389.358"
   version="1.1"
   id="svg127"
   sodipodi:docname="ШЗ 16.3.svg"
   inkscape:version="1.4.4 (dcaf3e7, 2026-05-05)"
   xmlns:inkscape="http://www.inkscape.org/namespaces/inkscape"
   xmlns:sodipodi="http://sodipodi.sourceforge.net/DTD/sodipodi-0.dtd"
   xmlns="http://www.w3.org/2000/svg"
   xmlns:svg="http://www.w3.org/2000/svg">
  <sodipodi:namedview
     id="namedview127"
     pagecolor="#ffffff"
     bordercolor="#000000"
     borderopacity="0.25"
     inkscape:showpageshadow="2"
     inkscape:pageopacity="0.0"
     inkscape:pagecheckerboard="0"
     inkscape:deskcolor="#d1d1d1"
     inkscape:zoom="0.51981275"
     inkscape:cx="168.32985"
     inkscape:cy="605.02556"
     inkscape:window-width="2560"
     inkscape:window-height="1369"
     inkscape:window-x="-8"
     inkscape:window-y="-8"
     inkscape:window-maximized="1"
     inkscape:current-layer="g126"
     showgrid="false" />
  <desc
     id="desc1">ШЗ 16.3.dxf - scale = 1.000000, origin = (0.000000, 0.000000), method = manual</desc>
  <defs
     id="defs64">
    <marker
       id="DistanceX"
       orient="auto"
       refX="0"
       refY="0"
       style="overflow:visible">
      <path
         d="M 3,-3 -3,3 M 0,-5 V 5"
         style="stroke:#000000;stroke-width:0.5"
         id="path1" />
    </marker>
    <pattern
       id="Hatch"
       patternUnits="userSpaceOnUse"
       width="8"
       height="8"
       x="0"
       y="0">
      <path
         d="M8 4 l-4,4"
         stroke="#000000"
         stroke-width="0.25"
         linecap="square"
         id="path2" />
      <path
         d="M6 2 l-4,4"
         stroke="#000000"
         stroke-width="0.25"
         linecap="square"
         id="path3" />
      <path
         d="M4 0 l-4,4"
         stroke="#000000"
         stroke-width="0.25"
         linecap="square"
         id="path4" />
    </pattern>
    <symbol
       id="*Model_Space" />
    <symbol
       id="*Paper_Space" />
    <symbol
       id="*Paper_Space0" />
    <symbol
       id="KDIMARROW_00">
      <path
         style="fill:none;stroke:#000000;stroke-linecap:round"
         d="M 0,1122.52 H -3.77953"
         id="path5" />
    </symbol>
    <symbol
       id="KDIMARROW_01">
      <path
         style="fill:none;stroke:#000000;stroke-linecap:round"
         d="m 0,1122.52 -18.8976,2.49"
         id="path6" />
      <path
         style="fill:none;stroke:#000000;stroke-linecap:round"
         d="m -18.8976,1125.01 1.8897,-2.49"
         id="path7" />
      <path
         style="fill:none;stroke:#000000;stroke-linecap:round"
         d="m -17.0079,1122.52 -1.8897,-2.49"
         id="path8" />
      <path
         style="fill:none;stroke:#000000;stroke-linecap:round"
         d="M -18.8976,1120.03 0,1122.52"
         id="path9" />
      <path
         d="m 0,1122.5197 -18.897638,-2.4879 1.889764,2.4879 -1.889764,2.4879 z"
         style="fill:#000000"
         id="path10" />
      <path
         style="fill:none;stroke:#000000;stroke-linecap:round"
         d="M 0,1122.52 H -3.77953"
         id="path11" />
    </symbol>
    <symbol
       id="KDIMARROW_02">
      <path
         style="fill:none;stroke:#000000;stroke-linecap:round"
         d="m 0,1122.52 18.8976,2.49"
         id="path12" />
      <path
         style="fill:none;stroke:#000000;stroke-linecap:round"
         d="m 18.8976,1125.01 -1.8897,-2.49"
         id="path13" />
      <path
         style="fill:none;stroke:#000000;stroke-linecap:round"
         d="m 17.0079,1122.52 1.8897,-2.49"
         id="path14" />
      <path
         style="fill:none;stroke:#000000;stroke-linecap:round"
         d="M 18.8976,1120.03 0,1122.52"
         id="path15" />
      <path
         style="fill:none;stroke:#000000;stroke-linecap:round"
         d="M 0,1122.52 H 26.4567"
         id="path16" />
      <path
         d="m 17.007874,1122.5197 1.889764,-2.4879 L 0,1122.5197 l 18.897638,2.4879 z"
         style="fill:#000000"
         id="path17" />
      <path
         style="fill:none;stroke:#000000;stroke-linecap:round"
         d="M 0,1122.52 H -3.77953"
         id="path18" />
    </symbol>
    <symbol
       id="KDIMARROW_03">
      <path
         style="fill:none;stroke:#000000;stroke-linecap:round"
         d="m -4.00819,1126.53 8.01638,-8.02"
         id="path19" />
      <path
         style="fill:none;stroke:#000000;stroke-linecap:round"
         d="M 0,1122.52 H 7.55905"
         id="path20" />
      <path
         style="fill:none;stroke:#000000;stroke-linecap:round"
         d="M 0,1122.52 H -3.77953"
         id="path21" />
    </symbol>
    <symbol
       id="KDIMARROW_04">
      <path
         d="M -0.944882,1122.5197 0,1123.4646 0.944882,1122.5197 0,1121.5748 l -0.944882,0.9449 H -1.889764 L 0,1124.4094 1.889764,1122.5197 0,1120.6299 l -1.889764,1.8898 H -2.834646 L 0,1125.3543 2.834646,1122.5197 0,1119.685 l -2.834646,2.8347"
         style="fill:none;stroke:#000000;stroke-linecap:round"
         id="path22" />
      <path
         d="M -0.944882,1122.5197 0,1123.4646 0.944882,1122.5197 0,1121.5748 l -0.944882,0.9449 H -1.889764 L 0,1124.4094 1.889764,1122.5197 0,1120.6299 l -1.889764,1.8898 H -2.834646 L 0,1125.3543 2.834646,1122.5197 0,1119.685 l -2.834646,2.8347"
         style="fill:none;stroke:#000000;stroke-linecap:round"
         id="path23" />
      <path
         style="fill:none;stroke:#000000;stroke-linecap:round"
         d="M 0,1122.52 H -3.77953"
         id="path24" />
    </symbol>
    <symbol
       id="KDIMARROW_05">
      <path
         style="fill:none;stroke:#000000;stroke-linecap:round"
         d="m 0,1122.52 -18.8976,2.49"
         id="path25" />
      <path
         style="fill:none;stroke:#000000;stroke-linecap:round"
         d="m -18.8976,1125.01 v -2.49"
         id="path26" />
      <path
         style="fill:none;stroke:#000000;stroke-linecap:round"
         d="m -18.8976,1122.52 v -2.49"
         id="path27" />
      <path
         style="fill:none;stroke:#000000;stroke-linecap:round"
         d="M -18.8976,1120.03 0,1122.52"
         id="path28" />
      <path
         d="M -18.897638,1125.0076 0,1122.5197 l -18.897638,-2.4879 v 2.4879 z"
         style="fill:#000000"
         id="path29" />
      <path
         style="fill:none;stroke:#000000;stroke-linecap:round"
         d="M 0,1122.52 H -3.77953"
         id="path30" />
    </symbol>
    <symbol
       id="KDIMARROW_06">
      <path
         style="fill:none;stroke:#000000;stroke-linecap:round"
         d="m 0,1122.52 18.8976,2.49"
         id="path31" />
      <path
         style="fill:none;stroke:#000000;stroke-linecap:round"
         d="m 18.8976,1125.01 v -2.49"
         id="path32" />
      <path
         style="fill:none;stroke:#000000;stroke-linecap:round"
         d="m 18.8976,1122.52 v -2.49"
         id="path33" />
      <path
         style="fill:none;stroke:#000000;stroke-linecap:round"
         d="M 18.8976,1120.03 0,1122.52"
         id="path34" />
      <path
         style="fill:none;stroke:#000000;stroke-linecap:round"
         d="M 0,1122.52 H 26.4567"
         id="path35" />
      <path
         d="m 18.897638,1122.5197 v -2.4879 L 0,1122.5197 l 18.897638,2.4879 z"
         style="fill:#000000"
         id="path36" />
      <path
         style="fill:none;stroke:#000000;stroke-linecap:round"
         d="M 0,1122.52 H -3.77953"
         id="path37" />
    </symbol>
    <symbol
       id="KDIMARROW_07">
      <path
         style="fill:none;stroke:#000000;stroke-linecap:round"
         d="m 0,1122.52 -18.8976,2.49"
         id="path38" />
      <path
         style="fill:none;stroke:#000000;stroke-linecap:round"
         d="m 0,1122.52 -18.8976,-2.49"
         id="path39" />
      <path
         style="fill:none;stroke:#000000;stroke-linecap:round"
         d="M 0,1122.52 H -3.77953"
         id="path40" />
    </symbol>
    <symbol
       id="KDIMARROW_08">
      <path
         style="fill:none;stroke:#000000;stroke-linecap:round"
         d="m 0,1122.52 18.8976,2.49"
         id="path41" />
      <path
         style="fill:none;stroke:#000000;stroke-linecap:round"
         d="m 0,1122.52 18.8976,-2.49"
         id="path42" />
      <path
         style="fill:none;stroke:#000000;stroke-linecap:round"
         d="M 0,1122.52 H 26.4567"
         id="path43" />
      <path
         style="fill:none;stroke:#000000;stroke-linecap:round"
         d="M 0,1122.52 H -3.77953"
         id="path44" />
    </symbol>
    <symbol
       id="KDIMARROW_09">
      <path
         style="fill:none;stroke:#000000;stroke-linecap:round"
         d="m 0,1122.52 -7.55905,7.56"
         id="path45" />
      <path
         style="fill:none;stroke:#000000;stroke-linecap:round"
         d="m 0,1122.52 -7.55905,-7.56"
         id="path46" />
      <path
         style="fill:none;stroke:#000000;stroke-linecap:round"
         d="M 0,1122.52 H -3.77953"
         id="path47" />
    </symbol>
    <symbol
       id="KDIMARROW_10">
      <path
         style="fill:none;stroke:#000000;stroke-linecap:round"
         d="m 0,1122.52 7.55905,7.56"
         id="path48" />
      <path
         style="fill:none;stroke:#000000;stroke-linecap:round"
         d="m 0,1122.52 7.55905,-7.56"
         id="path49" />
      <path
         style="fill:none;stroke:#000000;stroke-linecap:round"
         d="M 0,1122.52 H 15.1181"
         id="path50" />
      <path
         style="fill:none;stroke:#000000;stroke-linecap:round"
         d="M 0,1122.52 H -3.77953"
         id="path51" />
    </symbol>
    <symbol
       id="KDIMARROW_11">
      <path
         d="m 9.448819,1122.5197 a 9.448819,9.448819 0 0 0 -18.897638,0 9.448819,9.448819 0 0 0 18.897638,0 z"
         style="fill:none;stroke:#000000;stroke-linecap:round"
         id="path52" />
      <path
         d="m 9.448819,1122.5197 a 9.448819,9.448819 0 0 0 -18.897638,0 9.448819,9.448819 0 0 0 18.897638,0 z"
         style="fill:none;stroke:#000000;stroke-linecap:round"
         id="path53" />
      <path
         style="fill:none;stroke:#000000;stroke-linecap:round"
         d="M 0,1122.52 H -3.77953"
         id="path54" />
    </symbol>
    <symbol
       id="KDIMARROW_12">
      <path
         d="m 5.669291,1122.5197 a 5.669291,5.669291 0 0 0 -11.338582,0 5.669291,5.669291 0 0 0 11.338582,0 z"
         style="fill:none;stroke:#000000;stroke-linecap:round"
         id="path55" />
      <path
         d="m 5.669291,1122.5197 a 5.669291,5.669291 0 0 0 -11.338582,0 5.669291,5.669291 0 0 0 11.338582,0 z"
         style="fill:none;stroke:#000000;stroke-linecap:round"
         id="path56" />
      <path
         style="fill:none;stroke:#000000;stroke-linecap:round"
         d="M 0,1122.52 H -3.77953"
         id="path57" />
    </symbol>
    <symbol
       id="KDIMARROW_13">
      <path
         style="fill:none;stroke:#000000;stroke-linecap:round"
         d="m -4.00819,1118.51 8.01638,8.02"
         id="path58" />
      <path
         style="fill:none;stroke:#000000;stroke-linecap:round"
         d="M 0,1122.52 H 7.55905"
         id="path59" />
      <path
         style="fill:none;stroke:#000000;stroke-linecap:round"
         d="M 0,1122.52 H -3.77953"
         id="path60" />
    </symbol>
    <symbol
       id="U0">
      <path
         style="fill:none;stroke:#000000;stroke-linecap:round"
         d="M 0,1122.52 V 0"
         id="path61" />
      <path
         style="fill:none;stroke:#000000;stroke-linecap:round"
         d="M 0,0 H 793.701"
         id="path62" />
      <path
         style="fill:none;stroke:#000000;stroke-linecap:round"
         d="M 793.701,0 V 1122.52"
         id="path63" />
      <path
         style="fill:none;stroke:#000000;stroke-linecap:round"
         d="M 793.701,1122.52 H 0"
         id="path64" />
    </symbol>
  </defs>
  <g
     inkscape:groupmode="layer"
     inkscape:label="0"
     id="g126"
     transform="translate(-364.4745,-267.6655)">
    <path
       style="fill:none;stroke:#000000;stroke-width:5.66929134;stroke-linecap:round;stroke-linejoin:round;stroke-dasharray:none;stroke-dashoffset:0;stroke-opacity:1"
       d="M 485.838,324.193 V 303.235"
       id="path65" />
    <path
       d="m 485.83821,315.10967 c 1.93607,0 3.76457,0.6372 5.67109,1.25455 1.87521,0.6072 3.82588,1.19521 5.06611,2.64022"
       style="fill:none;stroke:#000000;stroke-width:5.66929134;stroke-linecap:round;stroke-linejoin:round;stroke-dasharray:none;stroke-dashoffset:0;stroke-opacity:1"
       id="path66" />
    <path
       style="fill:none;stroke:#000000;stroke-width:5.66929134;stroke-linecap:round;stroke-linejoin:round;stroke-dasharray:none;stroke-dashoffset:0;stroke-opacity:1"
       d="M 455.505,624.875 H 439.4"
       id="path67" />
    <path
       style="fill:none;stroke:#000000;stroke-width:5.66929134;stroke-linecap:round;stroke-linejoin:round;stroke-dasharray:none;stroke-dashoffset:0;stroke-opacity:1"
       d="m 466.19,624.875 h 5.421"
       id="path68" />
    <path
       style="fill:none;stroke:#000000;stroke-width:5.66929134;stroke-linecap:round;stroke-linejoin:round;stroke-dasharray:none;stroke-dashoffset:0;stroke-opacity:1"
       d="M 455.505,624.875 H 466.19"
       id="path69" />
    <path
       style="fill:none;stroke:#000000;stroke-width:5.66929134;stroke-linecap:round;stroke-linejoin:round;stroke-dasharray:none;stroke-dashoffset:0;stroke-opacity:1"
       d="m 444.117,613.487 22.777,22.777"
       id="path70" />
    <path
       style="fill:none;stroke:#000000;stroke-width:5.66929134;stroke-linecap:round;stroke-linejoin:round;stroke-dasharray:none;stroke-dashoffset:0;stroke-opacity:1"
       d="m 444.117,636.264 22.777,-22.777"
       id="path71" />
    <path
       style="fill:none;stroke:#000000;stroke-width:5.66929134;stroke-linecap:round;stroke-linejoin:round;stroke-dasharray:none;stroke-dashoffset:0;stroke-opacity:1"
       d="M 455.505,644.183 H 434.771"
       id="path72" />
    <path
       style="fill:none;stroke:#000000;stroke-width:5.66929134;stroke-linecap:round;stroke-linejoin:round;stroke-dasharray:none;stroke-dashoffset:0;stroke-opacity:1"
       d="m 434.771,644.183 h 20.734"
       id="path73" />
    <path
       style="fill:none;stroke:#000000;stroke-width:5.66929134;stroke-linecap:round;stroke-linejoin:round;stroke-dasharray:none;stroke-dashoffset:0;stroke-opacity:1"
       d="M 434.771,644.183 H 424.725"
       id="path74" />
    <path
       style="fill:none;stroke:#000000;stroke-width:5.66929134;stroke-linecap:round;stroke-linejoin:round;stroke-dasharray:none;stroke-dashoffset:0;stroke-opacity:1"
       d="m 476.24,644.183 h 10.046"
       id="path75" />
    <path
       style="fill:none;stroke:#000000;stroke-width:5.66929134;stroke-linecap:round;stroke-linejoin:round;stroke-dasharray:none;stroke-dashoffset:0;stroke-opacity:1"
       d="m 466.133,636.978 v 7.205"
       id="path76" />
    <path
       style="fill:none;stroke:#000000;stroke-width:5.66929134;stroke-linecap:round;stroke-linejoin:round;stroke-dasharray:none;stroke-dashoffset:0;stroke-opacity:1"
       d="m 444.878,636.978 v 7.205"
       id="path77" />
    <path
       style="fill:none;stroke:#000000;stroke-width:5.66929134;stroke-linecap:round;stroke-linejoin:round;stroke-dasharray:none;stroke-dashoffset:0;stroke-opacity:1"
       d="M 455.505,644.183 H 476.24"
       id="path78" />
    <path
       style="fill:none;stroke:#000000;stroke-width:5.66929134;stroke-linecap:round;stroke-linejoin:round;stroke-dasharray:none;stroke-dashoffset:0;stroke-opacity:1"
       d="M 476.24,644.183 H 455.505"
       id="path79" />
    <path
       style="fill:none;stroke:#000000;stroke-width:5.66929134;stroke-linecap:round;stroke-linejoin:round;stroke-dasharray:none;stroke-dashoffset:0;stroke-opacity:1"
       d="m 482.483,510.265 14.092,-72.583"
       id="path80" />
    <path
       style="fill:none;stroke:#000000;stroke-width:5.66929134;stroke-linecap:round;stroke-linejoin:round;stroke-dasharray:none;stroke-dashoffset:0;stroke-opacity:1"
       d="M 470.403,510.265 456.311,437.682"
       id="path81" />
    <path
       style="fill:none;stroke:#000000;stroke-width:5.66929134;stroke-linecap:round;stroke-linejoin:round;stroke-dasharray:none;stroke-dashoffset:0;stroke-opacity:1"
       d="M 440.608,510.265 454.7,437.682"
       id="path82" />
    <path
       style="fill:none;stroke:#000000;stroke-width:5.66929134;stroke-linecap:round;stroke-linejoin:round;stroke-dasharray:none;stroke-dashoffset:0;stroke-opacity:1"
       d="M 428.528,510.265 414.436,437.682"
       id="path83" />
    <path
       style="fill:none;stroke:#000000;stroke-width:5.66929134;stroke-linecap:round;stroke-linejoin:round;stroke-dasharray:none;stroke-dashoffset:0;stroke-opacity:1"
       d="m 405.379,513.508 15.912,36.643"
       id="path84" />
    <path
       style="fill:none;stroke:#000000;stroke-width:5.66929134;stroke-linecap:round;stroke-linejoin:round;stroke-dasharray:none;stroke-dashoffset:0;stroke-opacity:1"
       d="m 405.379,513.508 v -3.243"
       id="path85" />
    <path
       style="fill:none;stroke:#000000;stroke-width:5.66929134;stroke-linecap:round;stroke-linejoin:round;stroke-dasharray:none;stroke-dashoffset:0;stroke-opacity:1"
       d="m 505.632,510.265 v 3.243"
       id="path86" />
    <path
       style="fill:none;stroke:#000000;stroke-width:5.66929134;stroke-linecap:round;stroke-linejoin:round;stroke-dasharray:none;stroke-dashoffset:0;stroke-opacity:1"
       d="M 505.632,513.508 H 405.379"
       id="path87" />
    <path
       style="fill:none;stroke:#000000;stroke-width:5.66929134;stroke-linecap:round;stroke-linejoin:round;stroke-dasharray:none;stroke-dashoffset:0;stroke-opacity:1"
       d="M 505.632,513.508 489.72,550.151"
       id="path89" />
    <path
       style="fill:none;stroke:#000000;stroke-width:5.66929134;stroke-linecap:round;stroke-linejoin:round;stroke-dasharray:none;stroke-dashoffset:0;stroke-opacity:1"
       d="M 424.725,651.354 V 513.508"
       id="path90" />
    <path
       style="fill:none;stroke:#000000;stroke-width:5.66929134;stroke-linecap:round;stroke-linejoin:round;stroke-dasharray:none;stroke-dashoffset:0;stroke-opacity:1"
       d="M 486.286,651.354 V 513.508"
       id="path92" />
    <path
       style="fill:none;stroke:#000000;stroke-width:5.66929134;stroke-linecap:round;stroke-linejoin:round;stroke-dasharray:none;stroke-dashoffset:0;stroke-opacity:1"
       d="m 486.286,558.061 -9.263,21.331"
       id="path94" />
    <path
       style="fill:none;stroke:#000000;stroke-width:5.66929134;stroke-linecap:round;stroke-linejoin:round;stroke-dasharray:none;stroke-dashoffset:0;stroke-opacity:1"
       d="m 475.359,583.224 -9.226,21.248"
       id="path95" />
    <path
       style="fill:none;stroke:#000000;stroke-width:5.66929134;stroke-linecap:round;stroke-linejoin:round;stroke-dasharray:none;stroke-dashoffset:0;stroke-opacity:1"
       d="m 435.652,583.224 9.226,21.248"
       id="path96" />
    <path
       style="fill:none;stroke:#000000;stroke-width:5.66929134;stroke-linecap:round;stroke-linejoin:round;stroke-dasharray:none;stroke-dashoffset:0;stroke-opacity:1"
       d="m 424.725,558.061 9.263,21.331"
       id="path97" />
    <path
       style="fill:none;stroke:#000000;stroke-width:5.66929134;stroke-linecap:round;stroke-linejoin:round;stroke-dasharray:none;stroke-dashoffset:0;stroke-opacity:1"
       d="M 486.286,583.224 H 424.725"
       id="path98" />
    <path
       style="fill:none;stroke:#000000;stroke-width:5.66929134;stroke-linecap:round;stroke-linejoin:round;stroke-dasharray:none;stroke-dashoffset:0;stroke-opacity:1"
       d="M 486.286,579.392 H 424.725"
       id="path99" />
    <path
       style="fill:none;stroke:#000000;stroke-width:5.66929134;stroke-linecap:round;stroke-linejoin:round;stroke-dasharray:none;stroke-dashoffset:0;stroke-opacity:1"
       d="m 486.286,579.392 v 3.832"
       id="path100" />
    <path
       style="fill:none;stroke:#000000;stroke-width:5.66929134;stroke-linecap:round;stroke-linejoin:round;stroke-dasharray:none;stroke-dashoffset:0;stroke-opacity:1"
       d="m 466.133,606.911 v 5.862"
       id="path101" />
    <path
       style="fill:none;stroke:#000000;stroke-width:5.66929134;stroke-linecap:round;stroke-linejoin:round;stroke-dasharray:none;stroke-dashoffset:0;stroke-opacity:1"
       d="m 444.878,606.911 v 5.862"
       id="path102" />
    <path
       d="m 471.61133,624.87546 a 16.105856,16.105856 0 0 0 -32.21171,0 16.105855,16.105855 0 0 0 32.21171,0 z"
       style="fill:none;stroke:#000000;stroke-width:5.66929134;stroke-linecap:round;stroke-linejoin:round;stroke-dasharray:none;stroke-dashoffset:0;stroke-opacity:1"
       id="path103" />
    <path
       style="fill:none;stroke:#000000;stroke-width:5.66929134;stroke-linecap:round;stroke-linejoin:round;stroke-dasharray:none;stroke-dashoffset:0;stroke-opacity:1"
       d="m 444.878,604.472 v 2.439"
       id="path104" />
    <path
       style="fill:none;stroke:#000000;stroke-width:5.66929134;stroke-linecap:round;stroke-linejoin:round;stroke-dasharray:none;stroke-dashoffset:0;stroke-opacity:1"
       d="M 455.505,604.472 H 444.878"
       id="path105" />
    <path
       style="fill:none;stroke:#000000;stroke-width:5.66929134;stroke-linecap:round;stroke-linejoin:round;stroke-dasharray:none;stroke-dashoffset:0;stroke-opacity:1"
       d="m 466.133,604.472 v 2.439"
       id="path106" />
    <path
       style="fill:none;stroke:#000000;stroke-width:5.66929134;stroke-linecap:round;stroke-linejoin:round;stroke-dasharray:none;stroke-dashoffset:0;stroke-opacity:1"
       d="m 455.505,604.472 h 10.628"
       id="path107" />
    <path
       style="fill:none;stroke:#000000;stroke-width:5.66929134;stroke-linecap:round;stroke-linejoin:round;stroke-dasharray:none;stroke-dashoffset:0;stroke-opacity:1"
       d="m 514.687,275.01 v 28.225"
       id="path108" />
    <path
       style="fill:none;stroke:#000000;stroke-width:5.66929134;stroke-linecap:round;stroke-linejoin:round;stroke-dasharray:none;stroke-dashoffset:0;stroke-opacity:1"
       d="M 467.048,333.274 V 303.235"
       id="path109" />
    <path
       d="m 414.43555,437.68165 h 40.26464 v -99.21877 l -40.26464,23.35377 z"
       style="fill:none;stroke:#000000;stroke-width:5.66929134;stroke-linecap:round;stroke-linejoin:round;stroke-dasharray:none;stroke-dashoffset:0;stroke-opacity:1"
       id="path110" />
    <path
       style="fill:none;stroke:#000000;stroke-width:5.66929134;stroke-linecap:round;stroke-linejoin:round;stroke-dasharray:none;stroke-dashoffset:0;stroke-opacity:1"
       d="M 370.144,338.463 406,361.817"
       id="path111" />
    <path
       d="m 496.57541,437.68165 h -40.26464 v -99.21877 l 40.26464,-19.45844 z"
       style="fill:none;stroke:#000000;stroke-width:5.66929134;stroke-linecap:round;stroke-linejoin:round;stroke-dasharray:none;stroke-dashoffset:0;stroke-opacity:1"
       id="path112" />
    <path
       style="fill:none;stroke:#000000;stroke-width:5.66929134;stroke-linecap:round;stroke-linejoin:round;stroke-dasharray:none;stroke-dashoffset:0;stroke-opacity:1"
       d="m 406,315.11 h 19.173"
       id="path113" />
    <path
       style="fill:none;stroke:#000000;stroke-width:5.66929134;stroke-linecap:round;stroke-linejoin:round;stroke-dasharray:none;stroke-dashoffset:0;stroke-opacity:1"
       d="m 406,315.11 v 46.707"
       id="path114" />
    <path
       style="fill:none;stroke:#000000;stroke-width:5.66929134;stroke-linecap:round;stroke-linejoin:round;stroke-dasharray:none;stroke-dashoffset:0;stroke-opacity:1"
       d="m 406,315.11 -35.856,23.353"
       id="path115" />
    <path
       style="fill:none;stroke:#000000;stroke-width:5.66929134;stroke-linecap:round;stroke-linejoin:round;stroke-dasharray:none;stroke-dashoffset:0;stroke-opacity:1"
       d="M 443.963,344.727 V 303.235"
       id="path116" />
    <path
       style="fill:none;stroke:#000000;stroke-width:5.66929134;stroke-linecap:round;stroke-linejoin:round;stroke-dasharray:none;stroke-dashoffset:0;stroke-opacity:1"
       d="m 444.2,315.11 h 22.611"
       id="path117" />
    <path
       style="fill:none;stroke:#000000;stroke-width:5.66929134;stroke-linecap:round;stroke-linejoin:round;stroke-dasharray:none;stroke-dashoffset:0;stroke-opacity:1"
       d="M 394.789,275.01 H 514.687"
       id="path118" />
    <path
       style="fill:none;stroke:#000000;stroke-width:5.66929134;stroke-linecap:round;stroke-linejoin:round;stroke-dasharray:none;stroke-dashoffset:0;stroke-opacity:1"
       d="M 394.789,303.235 H 514.687"
       id="path119" />
    <path
       style="fill:none;stroke:#000000;stroke-width:5.66929134;stroke-linecap:round;stroke-linejoin:round;stroke-dasharray:none;stroke-dashoffset:0;stroke-opacity:1"
       d="m 394.789,275.01 v 28.225"
       id="path120" />
    <path
       style="fill:none;stroke:#000000;stroke-width:5.66929134;stroke-linecap:round;stroke-linejoin:round;stroke-dasharray:none;stroke-dashoffset:0;stroke-opacity:1"
       d="M 425.173,355.589 V 303.235"
       id="path121" />
    <path
       style="fill:none;stroke:#000000;stroke-width:5.66929134;stroke-linecap:round;stroke-linejoin:round;stroke-dasharray:none;stroke-dashoffset:0;stroke-opacity:1"
       d="M 370.144,354.251 V 322.676"
       id="path122" />
    <path
       style="fill:none;stroke:#000000;stroke-width:5.66929134;stroke-linecap:round;stroke-linejoin:round;stroke-dasharray:none;stroke-dashoffset:0;stroke-opacity:1"
       d="M 514.687,275.01 540.7,289.122"
       id="path123" />
    <path
       style="fill:none;stroke:#000000;stroke-width:5.66929134;stroke-linecap:round;stroke-linejoin:round;stroke-dasharray:none;stroke-dashoffset:0;stroke-opacity:1"
       d="m 540.7,289.122 -26.013,14.113"
       id="path124" />
    <path
       style="fill:none;stroke:#000000;stroke-width:5.66929134;stroke-linecap:round;stroke-linejoin:round;stroke-dasharray:none;stroke-dashoffset:0;stroke-opacity:1"
       d="M 540.7,304.91 V 273.335"
       id="path125" />
    <path
       style="fill:none;stroke:#000000;stroke-width:5.66929134;stroke-linecap:round;stroke-linejoin:round;stroke-dasharray:none;stroke-dashoffset:0;stroke-opacity:1"
       d="m 406,361.817 h 8.436"
       id="path126" />
    <path
       style="fill:#00ff00;stroke:#006400;stroke-width:0;stroke-linecap:round;stroke-linejoin:round;stroke-dasharray:none;paint-order:markers fill stroke"
       d="M 33.667687,21.424892 V 10.542407 H 90.460653 147.25362 V 21.424892 32.307376 H 90.460653 33.667687 Z"
       id="path88"
       transform="translate(364.4745,267.6655)" />
    <path
       style="fill:#00ff00;stroke:#006400;stroke-width:0;stroke-linecap:round;stroke-linejoin:round;stroke-dasharray:none;paint-order:markers fill stroke"
       d="m 153.37502,21.695114 c 0,-4.637647 0.18745,-8.432086 0.41655,-8.432086 0.6858,0 15.21082,7.793459 15.21162,8.161864 4.1e-4,0.187042 -3.51576,2.221579 -7.81371,4.521192 l -7.81446,4.181116 z"
       id="path91"
       transform="translate(364.4745,267.6655)" />
    <path
       style="fill:#00ff00;stroke:#006400;stroke-width:0;stroke-linecap:round;stroke-linejoin:round;stroke-dasharray:none;paint-order:markers fill stroke"
       d="m 25.269346,79.656131 c -7.050643,-4.607083 -12.865971,-8.574578 -12.922951,-8.816657 -0.05698,-0.242078 5.711728,-4.223953 12.819351,-8.848612 l 12.92295,-8.40847 0.19006,8.787065 c 0.104533,4.832886 0.104533,12.584193 0,17.225127 l -0.19006,8.438062 z"
       id="path93"
       transform="translate(364.4745,267.6655)" />
    <path
       style="fill:#00ff00;stroke:#006400;stroke-width:0;stroke-linecap:round;stroke-linejoin:round;stroke-dasharray:none;paint-order:markers fill stroke"
       d="M 44.550171,70.73615 V 50.671569 h 6.461476 6.461475 V 68.30636 85.941153 l -3.999865,2.429788 c -2.637042,1.601919 -4.838577,2.42979 -6.461475,2.42979 h -2.461611 z"
       id="path127"
       transform="translate(364.4745,267.6655)" />
    <path
       style="fill:#00ff00;stroke:#006400;stroke-width:0;stroke-linecap:round;stroke-linejoin:round;stroke-dasharray:none;paint-order:markers fill stroke"
       d="M 63.594519,60.484233 V 38.428774 h 6.461476 6.461475 v 18.292264 18.292264 l -6.461475,3.763196 -6.461476,3.763195 z"
       id="path128"
       transform="translate(364.4745,267.6655)" />
    <path
       style="fill:#00ff00;stroke:#006400;stroke-width:0;stroke-linecap:round;stroke-linejoin:round;stroke-dasharray:none;paint-order:markers fill stroke"
       d="M 63.594519,60.258373 V 38.428774 h 6.472585 6.472585 l -0.181149,18.146912 -0.181148,18.146911 -3.060699,1.793619 c -1.683384,0.986491 -4.51453,2.6437 -6.291436,3.682688 l -3.230738,1.889068 z"
       id="path129"
       transform="translate(364.4745,267.6655)" />
    <path
       style="fill:#00ff00;stroke:#006400;stroke-width:0;stroke-linecap:round;stroke-linejoin:round;stroke-dasharray:none;paint-order:markers fill stroke"
       d="M 82.638867,60.873898 V 50.671569 h 8.501942 8.501941 v 6.330075 6.330075 l -4.931126,2.231738 c -2.712119,1.227456 -6.385118,2.969971 -8.162219,3.872254 -1.777101,0.902284 -3.383967,1.640517 -3.570815,1.640517 -0.186847,0 -0.339723,-4.591049 -0.339723,-10.20233 z"
       id="path130"
       transform="translate(364.4745,267.6655)" />
    <path
       style="fill:#00ff00;stroke:#006400;stroke-width:0;stroke-linecap:round;stroke-linejoin:round;stroke-dasharray:none;paint-order:markers fill stroke"
       d="M 105.76415,49.311258 V 38.428774 h 6.12139 6.1214 v 8.010286 8.010286 l -5.79131,2.872198 c -3.18523,1.579709 -5.93986,2.872199 -6.1214,2.872199 -0.18155,0 -0.33008,-4.897118 -0.33008,-10.882485 z"
       id="path131"
       transform="translate(364.4745,267.6655)" />
    <path
       style="fill:#00ff00;stroke:#006400;stroke-width:0;stroke-linecap:round;stroke-linejoin:round;stroke-dasharray:none;paint-order:markers fill stroke"
       d="m 94.908716,119.87737 0.02705,-47.100754 16.339244,-7.821786 c 8.98658,-4.301982 16.62616,-7.923809 16.97683,-8.048504 0.3933,-0.139853 0.63759,20.903258 0.63759,54.922544 v 55.14925 H 111.88554 94.881663 Z"
       id="path132"
       transform="translate(364.4745,267.6655)" />
    <path
       style="fill:#00ff00;stroke:#006400;stroke-width:0;stroke-linecap:round;stroke-linejoin:round;stroke-dasharray:none;paint-order:markers fill stroke"
       d="m 53.400794,131.44001 0.0086,-35.538114 6.62291,-3.83672 c 3.642601,-2.110196 11.137441,-6.456302 16.655201,-9.658013 l 10.03229,-5.821294 V 121.782 166.97812 H 70.055995 53.39219 Z"
       id="path133"
       transform="translate(364.4745,267.6655)" />
    <path
       style="fill:#00ff00;stroke:#006400;stroke-width:0;stroke-linecap:round;stroke-linejoin:round;stroke-dasharray:none;paint-order:markers fill stroke"
       d="m 60.663175,208.29756 c -3.638201,-18.79779 -6.609492,-34.40736 -6.60287,-34.68792 0.0066,-0.28057 7.204683,-0.51012 15.99569,-0.51012 12.48726,0 15.983649,0.1894 15.983649,0.86581 0,0.4762 -2.907664,15.82507 -6.461475,34.10861 -3.553812,18.28353 -6.461476,33.50348 -6.461476,33.8221 0,0.31863 -1.313687,0.57932 -2.919304,0.57932 h -2.919304 z"
       id="path134"
       transform="translate(364.4745,267.6655)" />
    <path
       style="fill:#00ff00;stroke:#006400;stroke-width:0;stroke-linecap:round;stroke-linejoin:round;stroke-dasharray:none;paint-order:markers fill stroke"
       d="m 108.94586,240.98009 c -0.21128,-0.86099 -3.16876,-15.95071 -6.57217,-33.53273 -3.403406,-17.58201 -6.349007,-32.50292 -6.545777,-33.15757 -0.333796,-1.11053 0.738886,-1.19027 16.011797,-1.19027 9.00326,0 16.36552,0.0765 16.36058,0.17004 -0.005,0.0935 -3.0105,15.62657 -6.67902,34.51788 l -6.67004,34.34784 -2.76062,0.20512 c -2.39926,0.17826 -2.81089,2e-4 -3.14475,-1.36031 z"
       id="path135"
       transform="translate(364.4745,267.6655)" />
    <path
       style="fill:#00ff00;stroke:#006400;stroke-width:0;stroke-linecap:round;stroke-linejoin:round;stroke-dasharray:none;paint-order:markers fill stroke"
       d="m 71.5258,307.94743 c -0.178014,-0.28803 -2.035376,-4.44836 -4.127471,-9.24518 l -3.80381,-8.72148 v -20.35193 -20.35193 h 27.54629 27.546291 l -0.028,20.23462 -0.0279,20.23462 -4.01655,9.1821 -4.01655,9.1821 -19.374325,0.18039 c -10.655877,0.0992 -19.519971,-0.0553 -19.697985,-0.34331 z"
       id="path136"
       transform="translate(364.4745,267.6655)" />
    <path
       style="fill:#00ff00;stroke:#006400;stroke-width:0;stroke-linecap:round;stroke-linejoin:round;stroke-dasharray:none;paint-order:markers fill stroke"
       d="m 51.276252,261.57499 -5.176637,-11.958 5.089848,-0.20015 c 2.799417,-0.11008 5.212662,-0.0773 5.362767,0.0728 0.150104,0.15011 0.189159,5.62127 0.08679,12.15815 l -0.186129,11.88523 z"
       id="path137"
       transform="translate(364.4745,267.6655)" />
    <path
       style="fill:#00ff00;stroke:#006400;stroke-width:0;stroke-linecap:round;stroke-linejoin:round;stroke-dasharray:none;paint-order:markers fill stroke"
       d="m 124.8085,261.97315 v -12.69624 h 5.44124 c 2.99268,0 5.44124,0.25655 5.44124,0.57011 0,0.60776 -10.13503,24.06047 -10.60446,24.53896 -0.15291,0.15587 -0.27802,-5.42991 -0.27802,-12.41283 z"
       id="path138"
       transform="translate(364.4745,267.6655)" />
    <path
       style="fill:#00ff00;stroke:#006400;stroke-width:0;stroke-linecap:round;stroke-linejoin:round;stroke-dasharray:none;paint-order:markers fill stroke"
       d="m 82.383915,333.07375 c -0.714986,-1.15687 -5.866445,-13.32601 -5.866445,-13.85813 0,-0.30958 6.580502,-0.56287 14.623339,-0.56287 8.042836,0 14.623341,0.14691 14.623341,0.32646 0,0.17956 -1.41013,3.54633 -3.13361,7.48171 l -3.133611,7.15525 h -8.38889 c -4.613889,0 -8.539745,-0.24409 -8.724124,-0.54242 z"
       id="path139"
       transform="translate(364.4745,267.6655)" />
    <path
       style="fill:#00ff00;stroke:#006400;stroke-width:0;stroke-linecap:round;stroke-linejoin:round;stroke-dasharray:none;paint-order:markers fill stroke"
       d="m 87.488008,349.54151 -3.528828,-3.53034 1.24511,-0.61517 c 1.774835,-0.87688 3.143826,-1.22311 5.166441,-1.30666 1.917607,-0.0792 3.163465,0.0719 4.680834,0.56776 0.900702,0.29433 2.348965,0.95091 2.846362,1.29041 0.100519,0.0686 -0.954464,1.20028 -3.367355,3.61213 l -3.513736,3.51222 z"
       id="path140"
       transform="translate(364.4745,267.6655)" />
    <path
       style="fill:#00ff00;stroke:#006400;stroke-width:0;stroke-linecap:round;stroke-linejoin:round;stroke-dasharray:none;paint-order:markers fill stroke"
       d="m 78.24953,353.94356 c 0.126958,-0.63289 0.811706,-2.37917 1.20142,-3.06393 l 0.392286,-0.68929 2.039281,2.04194 2.039282,2.04193 H 81.0525 78.183202 Z"
       id="path141"
       transform="translate(364.4745,267.6655)" />
    <path
       style="fill:#00ff00;stroke:#006400;stroke-width:0;stroke-linecap:round;stroke-linejoin:round;stroke-dasharray:none;paint-order:markers fill stroke"
       d="m 79.305503,363.23808 c -0.283976,-0.56528 -0.668688,-1.50133 -0.854915,-2.08011 l -0.338596,-1.05234 1.500461,-0.0337 c 0.825254,-0.0185 2.147325,-0.0185 2.937935,0 l 1.437474,0.0337 -2.08302,2.08012 -2.08302,2.08011 z"
       id="path142"
       transform="translate(364.4745,267.6655)" />
    <path
       style="fill:#00ff00;stroke:#006400;stroke-width:0;stroke-linecap:round;stroke-linejoin:round;stroke-dasharray:none;paint-order:markers fill stroke"
       d="m 88.658697,370.19824 c -1.15244,-0.2086 -2.9693,-0.85324 -3.928846,-1.39399 l -0.734971,-0.41419 3.512494,-3.51098 3.512494,-3.51098 3.520145,3.52166 3.520144,3.52166 -0.935837,0.49328 c -2.483237,1.3089 -5.681206,1.79755 -8.465623,1.29354 z"
       id="path143"
       transform="translate(364.4745,267.6655)" />
    <path
       style="fill:#00ff00;stroke:#006400;stroke-width:0;stroke-linecap:round;stroke-linejoin:round;stroke-dasharray:none;paint-order:markers fill stroke"
       d="m 100.09255,362.14605 -2.097956,-2.10053 h 2.974546 c 1.636,0 2.97454,0.0222 2.97454,0.0493 0,0.0271 -0.15903,0.53594 -0.35341,1.13075 -0.30182,0.92362 -0.95646,2.37144 -1.29965,2.87434 -0.0692,0.10136 -0.74852,-0.50251 -2.19807,-1.95383 z"
       id="path144"
       transform="translate(364.4745,267.6655)" />
    <path
       style="fill:#00ff00;stroke:#006400;stroke-width:0;stroke-linecap:round;stroke-linejoin:round;stroke-dasharray:none;paint-order:markers fill stroke"
       d="m 100.15269,352.23377 c 1.40811,-1.40993 2.0687,-1.9951 2.13782,-1.89371 0.43322,0.63549 1.13328,2.22714 1.45281,3.3031 l 0.1874,0.63105 h -2.90791 -2.907904 z"
       id="path145"
       transform="translate(364.4745,267.6655)" />
  </g>
  <g
     inkscape:groupmode="layer"
     inkscape:label="Ð¡Ð¸ÑÑÐµÐ¼Ð½ÑÐ¹ ÑÐ»Ð¾Ð¹"
     id="g127"
     transform="translate(-364.4745,-267.6655)" />
</svg>
